<svg width="72" height="100" viewBox="0 0 72 100" fill="none" xmlns="http://www.w3.org/2000/svg">
<path d="M6.73759 92.5532L35.8156 100L64.539 92.5532L71.2766 19.8582H0L6.73759 92.5532Z" fill="#1F72B5"/>
<path d="M35.461 25.5319V94.3262L58.897 87.9338L64.3943 25.5319H35.461Z" fill="#51A3DC" fill-opacity="0.5"/>
<path d="M11.3475 34.0426L12.0957 42.5532L34.3813 42.9078L12.766 51.7731L13.4752 60.9929H35.461V34.0426H11.3475Z" fill="#D9D9D9"/>
<path d="M11.3475 34.0426L12.0957 42.5532L34.3813 42.9078L12.766 51.7731L13.4752 60.9929H35.461V34.0426H11.3475Z" fill="#CECECE"/>
<path d="M15.2482 80.1418L35.461 85.1064V75.8865L24.6639 73.0496V65.9574H14.1844L15.2482 80.1418Z" fill="#D9D9D9"/>
<path d="M15.2482 80.1418L35.461 85.1064V75.8865L24.6639 73.0496V65.9574H14.1844L15.2482 80.1418Z" fill="#CECECE"/>
<path d="M35.461 85.1064L54.6099 80.1418L57.0922 51.7731H41.2194L57.8014 44.3262L58.8652 34.0426H35.461V60.9929H46.8085V72.3404L35.461 75.8865V85.1064Z" fill="#D9D9D9"/>
<path d="M35.461 85.1064L54.6099 80.1418L57.0922 51.7731H41.2194L57.8014 44.3262L58.8652 34.0426H35.461V60.9929H46.8085V72.3404L35.461 75.8865V85.1064Z" fill="#EBEBEB"/>
<path d="M27.6596 0H14.1844V14.1844H27.6596V9.92908H18.4397V4.25532H27.6596V0Z" fill="black"/>
<path d="M28.3688 0V8.51064H37.5887V9.92908H28.3688V14.1844H41.844V4.96454H32.6241V4.25532H41.844V0H28.3688Z" fill="black"/>
<path d="M56.7376 4.25532H47.5177V4.96454H56.7376V14.1844H43.2624V9.92908H52.4823V8.51064H43.2624V0H56.7376V4.25532Z" fill="black"/>
</svg>
