<svg width="103" height="100" viewBox="0 0 103 100" fill="none" xmlns="http://www.w3.org/2000/svg">
<path d="M51.2657 0C22.9561 0 0 22.9521 0 51.2657C0 73.9166 14.6892 93.1331 35.0587 99.9119C37.6207 100.386 38.5616 98.7998 38.5616 97.4457C38.5616 96.2234 38.5137 92.1846 38.492 87.901C24.2294 91.0021 21.22 81.8522 21.22 81.8522C18.888 75.9266 15.5279 74.3513 15.5279 74.3513C10.8767 71.1693 15.8785 71.2344 15.8785 71.2344C21.0266 71.5963 23.7373 76.5176 23.7373 76.5176C28.3096 84.3551 35.7302 82.0891 38.6556 80.7795C39.1156 77.4657 40.4444 75.2044 41.9104 73.9243C30.5238 72.6276 18.5534 68.2318 18.5534 48.5883C18.5534 42.9915 20.5561 38.418 23.8358 34.828C23.3035 33.5365 21.5488 28.3225 24.3324 21.261C24.3324 21.261 28.6373 19.8831 38.4341 26.516C42.5231 25.3798 46.9089 24.8104 51.2657 24.7911C55.6225 24.8104 60.0115 25.3798 64.1086 26.516C73.8937 19.8831 78.1926 21.261 78.1926 21.261C80.983 28.3225 79.2275 33.5365 78.6952 34.828C81.9821 38.418 83.9711 42.9911 83.9711 48.5883C83.9711 68.2784 71.9783 72.6143 60.5627 73.8833C62.4014 75.4742 64.0398 78.5943 64.0398 83.3769C64.0398 90.2362 63.9803 95.757 63.9803 97.4457C63.9803 98.8099 64.9031 100.408 67.502 99.9051C87.8604 93.1186 102.531 73.909 102.531 51.2657C102.531 22.9521 79.5781 0 51.2657 0Z" fill="#161614"/>
<path d="M19.2008 73.0293C19.0882 73.2838 18.6869 73.3602 18.3223 73.1857C17.9504 73.0184 17.7413 72.671 17.8619 72.4153C17.9725 72.1532 18.3737 72.08 18.7448 72.2561C19.1176 72.423 19.3299 72.7736 19.2008 73.0293ZM21.7226 75.2792C21.4781 75.506 21 75.4007 20.6756 75.0424C20.3403 74.685 20.2775 74.2073 20.5256 73.9769C20.7777 73.7506 21.2413 73.8563 21.5774 74.2142C21.9127 74.5756 21.9783 75.0501 21.7226 75.2792ZM23.4527 78.1581C23.1382 78.3764 22.6244 78.1717 22.3072 77.7158C21.9932 77.2602 21.9932 76.7134 22.314 76.4943C22.6324 76.2752 23.1382 76.4722 23.4599 76.9245C23.7735 77.3881 23.7739 77.9345 23.4527 78.1581ZM26.3781 81.4924C26.0971 81.802 25.4988 81.7192 25.0605 81.2962C24.6126 80.8829 24.4876 80.2963 24.7694 79.9863C25.0537 79.6759 25.6556 79.7631 26.0971 80.1825C26.5422 80.595 26.6777 81.186 26.3781 81.4924ZM30.1592 82.6182C30.0357 83.0195 29.4592 83.202 28.8786 83.0315C28.2988 82.8558 27.9192 82.3854 28.0362 81.9797C28.1569 81.5756 28.7358 81.3855 29.3208 81.568C29.8998 81.7429 30.2798 82.2097 30.1592 82.6182ZM34.4629 83.0955C34.4774 83.5184 33.9848 83.869 33.3753 83.8767C32.7622 83.8899 32.2664 83.5478 32.26 83.132C32.26 82.705 32.7412 82.3577 33.354 82.3476C33.9635 82.3355 34.4629 82.6753 34.4629 83.0955ZM38.6902 82.9334C38.7634 83.3459 38.3396 83.7697 37.7345 83.8823C37.1395 83.9909 36.5886 83.7363 36.5126 83.3274C36.4387 82.9045 36.8705 82.4811 37.4643 82.3713C38.0707 82.266 38.613 82.5141 38.6902 82.9334Z" fill="#161614"/>
</svg>
