<svg width="134" height="100" viewBox="0 0 134 100" fill="none" xmlns="http://www.w3.org/2000/svg">
<path d="M9.08888 99.9995H30.2956V48.4972L0 25.7756V90.9111C0 95.9325 4.06721 99.9995 9.08888 99.9995Z" fill="#4285F4"/>
<path d="M103.004 99.9995H124.211C129.233 99.9995 133.3 95.9322 133.3 90.9108V25.7756L103.004 48.4972V99.9995Z" fill="#34A853"/>
<path d="M103.004 9.11305V48.4972L133.3 25.7756V13.6575C133.3 2.4254 120.478 -3.98967 111.487 2.7511L103.004 9.11305Z" fill="#FBBC04"/>
<path fill-rule="evenodd" clip-rule="evenodd" d="M30.2956 48.4972V9.11308L66.65 36.3792L103.004 9.11305V48.4972L66.65 75.7631L30.2956 48.4972Z" fill="#EA4335"/>
<path d="M0 13.6575V25.7756L30.2956 48.4972V9.11308L21.8128 2.75112C12.8223 -3.98964 0 2.42595 0 13.6575Z" fill="#C5221F"/>
</svg>
