<svg width="72" height="100" viewBox="0 0 72 100" fill="none" xmlns="http://www.w3.org/2000/svg">
<path d="M46.8085 8.56778L43.9771 11.3992L41.1348 8.55683V14.188H36.1702V0.00359296H41.1205L41.1241 0L41.1277 0.00359296H41.1348V0.0106487L43.9894 2.8653L46.8085 0.0461877V0.00359296H51.7731V14.188H46.8085V8.56778Z" fill="#161614"/>
<path d="M21.2766 4.96813V0.00359285H34.7518V4.96813H30.4965V14.188H25.5319V4.96813H21.2766Z" fill="#161614"/>
<path d="M6.38298 0.00359296H11.3475V4.25891H14.8936V0.00359296H19.8582V14.188H14.8936V9.22345H11.3475V14.188H6.38298V0.00359296Z" fill="#161614"/>
<path d="M53.1915 0.00359296H58.156V9.22345H64.539V14.188H53.1915V0.00359296Z" fill="#161614"/>
<path d="M6.73759 92.5532L35.8156 100L64.539 92.5532L71.2766 19.8582H0L6.73759 92.5532Z" fill="#E44D26"/>
<path d="M35.461 25.5319V94.3262L58.897 87.9338L64.3943 25.5319H35.461Z" fill="#F16529"/>
<path fill-rule="evenodd" clip-rule="evenodd" d="M35.461 75.0317V84.7518L53.9007 79.7872L56.2964 52.1277H35.461V61.3475H46.0993L45.3901 71.9858L35.461 75.0317ZM35.461 34.7518H57.8014L57.0643 43.2624H35.461V34.7518Z" fill="white"/>
<path d="M24.4681 52.1277L23.7589 43.2624H35.461V34.7518H13.4752L15.6028 61.3475H35.461V52.1277H24.4681Z" fill="#EBEBEB"/>
<path d="M17.0213 79.078L35.461 84.7518V75.0317L25.5319 71.9858L25.1773 65.6028H15.9433L17.0213 79.078Z" fill="#EBEBEB"/>
</svg>
