<svg width="100" height="100" viewBox="0 0 100 100" fill="none" xmlns="http://www.w3.org/2000/svg">
<path d="M0 0H100V100H0V0Z" fill="#F0DB4F"/>
<path d="M39.558 92.1503C35.4818 92.1503 32.2402 90.9465 29.8333 88.539C27.4263 86.1315 27.5 85.6503 26 82.0954L34 78.1503C34.2329 79.4721 34.026 77.776 34.4918 79.0506C34.9965 80.2779 35.6565 81.2929 36.4717 82.0954C37.3258 82.8979 38.3545 83.2991 39.558 83.2991C41.4991 83.2991 42.9743 82.5674 43.9836 81.104C45.0318 79.5935 45.5559 76.9499 45.5559 73.1734V44H54.7565V73.1734C54.7565 79.0742 53.456 83.724 50.855 87.1228C48.2928 90.4745 44.5271 92.1503 39.558 92.1503Z" fill="#161614"/>
<path d="M64.8639 89.0347C67.7755 91.1118 71.3471 92.1503 75.5786 92.1503C77.5973 92.1503 79.5772 91.8199 81.5182 91.159C83.4593 90.4509 85.2063 89.4359 86.7591 88.1142C88.3508 86.7924 89.6125 85.1638 90.5442 83.2283C91.5147 81.2457 92 79.0034 92 76.5014C92 74.0467 91.573 72.0169 90.7189 70.4118C89.8648 68.8068 88.739 67.5323 87.3414 66.5882C85.9827 65.5968 84.4881 64.8179 82.8576 64.2514C79.5357 63.167 77.7222 62.5177 74.5886 61.1503C73.3216 60.5731 72.5414 59.5921 72.385 59.3789C72.3531 59.3389 71.5 58.2578 71.5 57.0997C71.5 55.6363 71.5197 55.0269 72.5 54.1503C73.4803 53.2736 74.1932 52.6488 76 52.6503C77.5914 52.6516 77.9424 52.6992 79.2472 53.4176C80.5671 54.2673 81.4794 55.4947 81.9841 57.0997L90.3113 53.4176C89.496 50.9629 88.312 49.0039 86.7591 47.5405C85.2063 46.0299 84.4799 45.7043 82.5 44.9962C80.5589 44.2882 78.0964 44 76 44H75.9606C74.058 44 73.9854 44 71.8573 44.5303C69.9163 45.0968 68.1305 45.9701 66.5 47.1503C64.9083 48.3304 63.9263 49.224 62.9558 51.065C61.9853 52.9061 61.4813 55.0166 61.5 57.6503C61.5192 60.3533 61.8688 62.4576 62.9558 64.2514C64.0428 65.9981 65.4792 67.4143 67.265 68.5C70.2447 70.3012 72.0494 71.1077 75.4621 72.2529C77.5585 72.725 79.2666 73.433 80.5865 74.3772C81.9065 75.2741 82.5664 76.5487 82.5664 78.2009C82.5664 79.4282 82.217 80.4196 81.5182 81.1749C80.8195 81.8829 79.946 82.4022 78.8978 82.7327C77.8496 83.0159 76.7626 83.1575 75.6368 83.1575C73.5016 83.1575 71.677 82.6146 70.163 81.5289C68.6878 80.4432 67.6784 78.7673 67.1349 76.5014L58.7495 80.1835C59.953 83.96 61.9911 86.9104 64.8639 89.0347Z" fill="#161614"/>
</svg>
