<svg width="88" height="100" viewBox="0 0 88 100" fill="none" xmlns="http://www.w3.org/2000/svg">
<path d="M6.24994 0H59.3529L87.4998 28.0376V93.7501C87.4998 97.2031 84.7 100 81.2499 100H6.24994C2.79985 100 0 97.2031 0 93.7501V6.24994C0 2.79694 2.80017 0 6.24994 0Z" fill="#E2574C"/>
<path d="M87.4096 28.1249H65.6252C62.1751 28.1249 59.3752 25.325 59.3752 21.875V0.0624084L87.4096 28.1249Z" fill="#B53629"/>
<path d="M64.0563 47.3843C65.1033 47.3843 65.6158 46.4718 65.6158 45.5875C65.6158 44.6718 65.0813 43.7874 64.0563 43.7874H58.0938C56.9282 43.7874 56.2782 44.7529 56.2782 45.8187V60.4717C56.2782 61.778 57.0219 62.503 58.0282 62.503C59.0283 62.503 59.7752 61.778 59.7752 60.4717V56.4499H63.3815C64.5003 56.4499 65.0596 55.5342 65.0596 54.625C65.0596 53.7345 64.5003 52.8498 63.3815 52.8498H59.7752V47.3843H64.0563ZM43.9032 43.7874H39.5406C38.3562 43.7874 37.5155 44.6 37.5155 45.8061V60.4843C37.5155 61.9811 38.7248 62.4499 39.5904 62.4499H44.1686C49.5873 62.4499 53.1654 58.8844 53.1654 53.3811C53.1625 47.5625 49.7939 43.7874 43.9032 43.7874ZM44.1127 58.8314H41.4532V47.4063H43.8501C47.4784 47.4063 49.0563 49.8408 49.0563 53.2C49.0563 56.3439 47.5062 58.8314 44.1127 58.8314ZM28.1314 43.7874H23.8095C22.5876 43.7874 21.9063 44.5935 21.9063 45.8187V60.4717C21.9063 61.778 22.6875 62.503 23.7374 62.503C24.7873 62.503 25.5685 61.778 25.5685 60.4717V56.1935H28.2778C31.6215 56.1935 34.381 53.8247 34.381 50.0154C34.3813 46.2875 31.7189 43.7874 28.1314 43.7874ZM28.0596 52.7564H25.5688V47.2281H28.0596C29.5971 47.2281 30.5752 48.4281 30.5752 49.9937C30.572 51.5564 29.5971 52.7564 28.0596 52.7564Z" fill="white"/>
</svg>
