<svg width="103" height="100" viewBox="0 0 103 100" fill="none" xmlns="http://www.w3.org/2000/svg">
<path d="M0 19.3878C0 8.6802 8.68017 0 19.3878 0H82.6531C93.3606 0 102.041 8.68019 102.041 19.3878V80.6122C102.041 91.3198 93.3606 100 82.6531 100H19.3878C8.68017 100 0 91.3198 0 80.6122V19.3878Z" fill="#001E36"/>
<path d="M27.6765 57.3796V50.0347H37.6979C39.9387 50.0347 41.7646 49.5782 43.1755 48.6653C44.5864 47.7109 45.603 46.466 46.2255 44.9306C46.8894 43.3952 47.2214 41.6939 47.2214 39.8265C47.2214 37.3782 46.5367 35.6354 45.1673 34.5979C43.8394 33.5605 42.0758 33.0418 39.8765 33.0418H27.6765V25.5102H39.9387C45.0843 25.5102 49.068 26.7344 51.8898 29.1827C54.7116 31.5895 56.1224 35.0752 56.1224 39.6398C56.1224 41.9636 55.749 44.2044 55.002 46.3622C54.2551 48.4786 53.1347 50.3667 51.6408 52.0265C50.1469 53.6864 48.2588 54.9935 45.9765 55.9479C43.6942 56.9024 40.9969 57.3796 37.8847 57.3796H27.6765ZM22.8214 70.3265V25.5102H31.6602V70.3265H22.8214Z" fill="#31A8FF"/>
<path d="M59.3483 60.7648H59.7871C61.1038 61.3958 62.6948 61.9637 64.56 62.4685C66.4253 62.9732 68.2905 63.2256 70.1558 63.2256C70.8873 63.2256 71.5639 63.2046 72.1856 63.1625C72.8074 63.0784 73.3377 62.9522 73.7766 62.7839C74.2521 62.6157 74.6178 62.3422 74.8738 61.9637C75.1298 61.5851 75.2578 61.0803 75.2578 60.4493C75.2578 59.5238 74.9104 58.8928 74.2155 58.5563C73.5572 58.2198 72.3868 57.8832 70.7044 57.5467L68.2357 57.0419C65.4561 56.453 63.2434 55.4223 61.5975 53.95C59.9883 52.4777 59.1837 50.2272 59.1837 47.1984C59.1837 45.0109 59.6957 43.0549 60.7198 41.3301C61.7438 39.5633 63.3531 38.1962 65.5475 37.2287C67.7419 36.2191 70.5764 35.7143 74.0509 35.7143C75.6967 35.7143 77.1963 35.8195 78.5495 36.0298C79.9393 36.2401 81.3291 36.5766 82.7189 37.0394V45.8102H82.28C80.7805 45.1371 79.3175 44.6744 77.8912 44.422C76.4648 44.1275 75.1115 43.9803 73.8315 43.9803C72.1491 43.9803 70.8324 44.1906 69.8815 44.6113C68.9306 44.9899 68.4551 45.705 68.4551 46.7567C68.4551 47.5559 68.8209 48.1238 69.5523 48.4604C70.3204 48.7969 71.4176 49.1124 72.844 49.4069L75.3676 49.9117C77.0865 50.2482 78.6409 50.7951 80.0307 51.5522C81.4571 52.3094 82.5909 53.3821 83.4321 54.7703C84.2733 56.1164 84.6939 57.8622 84.6939 60.0076C84.6939 63.8777 83.4321 66.7592 80.9085 68.6522C78.4215 70.5031 74.6544 71.4286 69.6072 71.4286C67.8882 71.4286 66.1144 71.2603 64.2857 70.9238C62.457 70.5872 60.8112 70.1666 59.3483 69.6618V60.7648Z" fill="#31A8FF"/>
</svg>
